<svg xmlns="http://www.w3.org/2000/svg" version="1.1" xmlns:xlink="http://www.w3.org/1999/xlink" xmlns:svgjs="http://svgjs.dev/svgjs" viewBox="0 0 800 400"><path d="M371.7488708496094,141.70404052734375C363.976079305013,146.18834431966147,324.81316630045575,161.13602193196616,325.11212158203125,168.60986328125C325.41107686360675,176.08370463053384,373.09417215983075,178.4753392537435,373.5426025390625,186.54708862304688C373.99103291829425,194.61883799235025,325.2615966796875,203.8863983154297,327.8027038574219,217.0403594970703C330.34381103515625,230.19432067871094,370.4036000569661,266.06876373291016,388.78924560546875,265.4708557128906C407.1748911539714,264.8729476928711,439.31239318847656,220.47832234700522,438.1165771484375,213.45291137695312C436.92076110839844,206.42750040690103,390.43348185221356,206.2780303955078,381.6143493652344,223.31838989257812C372.7952168782552,240.35874938964844,406.7264455159505,301.79372151692706,385.2017822265625,315.695068359375C363.6771189371745,329.59641520182294,273.5426025390625,323.0194447835286,252.46636962890625,306.7264709472656C231.39013671875,290.4334971110026,257.6980489095052,232.73543294270834,258.744384765625,217.93722534179688" fill="none" stroke-width="25" stroke="url(&quot;#SvgjsLinearGradient1018&quot;)" stroke-linecap="round" transform="matrix(1,0,0,1,0,0)"></path><defs><linearGradient id="SvgjsLinearGradient1018"><stop stop-color="hsl(37, 99%, 67%)" offset="0"></stop><stop stop-color="hsl(316, 73%, 52%)" offset="1"></stop></linearGradient></defs></svg>