<svg id="eorUjScNLVa1" xmlns="http://www.w3.org/2000/svg" xmlns:xlink="http://www.w3.org/1999/xlink"
  viewBox="0 0 300 300" shape-rendering="geometricPrecision" text-rendering="geometricPrecision"
  project-id="b6f4c59f4bb344eeb265e1c33ac9bbac" export-id="ec9abbf6ba1844f183ea07c005db1844"
  cached="false">
  <g transform="matrix(1.591131 0 0 1.591131-19.933839-88.788979)">
    <path d="M138.695496,45.218015c-52.485196,0-86.398708,36.066751-86.398708,86.398708"
      transform="translate(11.30452 18.787014)" fill="none" stroke="#000" stroke-width="12"
      stroke-linecap="round" />
    <path
      d="M149.999996,150.403749Q150,212.094026,150,212.094026c0,24.304682-.000004,24.304682-20.186614,24.304682l-66.212082.000001"
      fill="none" stroke="#000" stroke-width="12" stroke-miterlimit="1" />
    <path d="M94.981946,55.337241C68.161389,69.440235,52.296788,97.191876,52.296788,131.616723"
      transform="matrix(0-1 1 0 18.383277 202.700525)" fill="none" stroke="#000" stroke-width="12"
      stroke-linecap="round" />
    <path d="M138.695496,45.218015v86.398708" transform="matrix(-1 0 0-1 288.695492 195.621756)"
      fill="none" stroke="#000" stroke-width="12" stroke-linecap="round" />
    <path d="M138.695496,45.218011v86.398712" transform="matrix(-1 0 0-1 202.2968 281.616723)"
      fill="none" stroke="#000" stroke-width="12" stroke-linecap="round" />
  </g>
</svg>